<svg width="22" height="20" viewBox="0 0 22 20" fill="none" xmlns="http://www.w3.org/2000/svg">
<path fill-rule="evenodd" clip-rule="evenodd" d="M19.0733 2.01168C18.84 1.32334 18.1867 0.833344 17.4167 0.833344H4.58333C3.81333 0.833344 3.17167 1.32334 2.92667 2.01168L0.628333 8.62668C0.546667 8.87168 0.5 9.12834 0.5 9.39668V17.75C0.5 18.7183 1.28167 19.5 2.25 19.5C3.21833 19.5 4 18.7183 4 17.75V17.1667H18V17.75C18 18.7067 18.7817 19.5 19.75 19.5C20.7067 19.5 21.5 18.7183 21.5 17.75V9.39668C21.5 9.14001 21.4533 8.87168 21.3717 8.62668L19.0733 2.01168ZM4.58333 13.6667C3.615 13.6667 2.83333 12.885 2.83333 11.9167C2.83333 10.9483 3.615 10.1667 4.58333 10.1667C5.55167 10.1667 6.33333 10.9483 6.33333 11.9167C6.33333 12.885 5.55167 13.6667 4.58333 13.6667ZM17.4167 13.6667C16.4483 13.6667 15.6667 12.885 15.6667 11.9167C15.6667 10.9483 16.4483 10.1667 17.4167 10.1667C18.385 10.1667 19.1667 10.9483 19.1667 11.9167C19.1667 12.885 18.385 13.6667 17.4167 13.6667ZM2.83333 7.83334L4.315 3.37668C4.47833 2.91001 4.92167 2.58334 5.42333 2.58334H16.5767C17.0783 2.58334 17.5217 2.91001 17.685 3.37668L19.1667 7.83334H2.83333Z" fill="white"/>
</svg>
