<svg width="28" height="28" viewBox="0 0 28 28" fill="none" xmlns="http://www.w3.org/2000/svg">
<path fill-rule="evenodd" clip-rule="evenodd" d="M14 2.3335C7.55998 2.3335 2.33331 7.56016 2.33331 14.0002C2.33331 20.4402 7.55998 25.6668 14 25.6668C20.44 25.6668 25.6666 20.4402 25.6666 14.0002C25.6666 7.56016 20.44 2.3335 14 2.3335ZM12.8333 23.2518C8.22498 22.6802 4.66665 18.7602 4.66665 14.0002C4.66665 13.2768 4.75998 12.5885 4.91165 11.9118L10.5 17.5002V18.6668C10.5 19.9502 11.55 21.0002 12.8333 21.0002V23.2518ZM20.8833 20.2885C20.58 19.3435 19.7166 18.6668 18.6666 18.6668H17.5V15.1668C17.5 14.5252 16.975 14.0002 16.3333 14.0002H9.33331V11.6668H11.6666C12.3083 11.6668 12.8333 11.1418 12.8333 10.5002V8.16683H15.1666C16.45 8.16683 17.5 7.11683 17.5 5.8335V5.35516C20.9183 6.7435 23.3333 10.0918 23.3333 14.0002C23.3333 16.4268 22.4 18.6318 20.8833 20.2885Z" fill="#F7F7F7"/>
</svg>
