<svg width="24" height="24" viewBox="0 0 24 24" fill="none" xmlns="http://www.w3.org/2000/svg">
<path d="M19.2916 6.86667L12.875 3.15667C12.3383 2.84167 11.6616 2.84167 11.125 3.15667L4.70831 6.86667C4.17165 7.18167 3.83331 7.75334 3.83331 8.38334V15.7917C3.83331 16.4217 4.17165 16.9933 4.70831 17.3083L11.125 21.0183C11.6616 21.3333 12.3383 21.3333 12.875 21.0183L19.2916 17.3083C19.8283 16.9933 20.1666 16.4217 20.1666 15.7917V8.38334C20.1666 7.75334 19.8283 7.18167 19.2916 6.86667V6.86667ZM6.16665 15.4533V10.0633L10.8333 12.77V18.1483L6.16665 15.4533V15.4533ZM12 10.7517L7.33331 8.045L12 5.35L16.6666 8.045L12 10.7517ZM13.1666 18.1483V12.77L17.8333 10.0633V15.4533L13.1666 18.1483ZM6.16665 0.333336H2.08331C1.11498 0.333336 0.333313 1.115 0.333313 2.08334V6.16667H2.66665V2.66667H6.16665V0.333336ZM17.8333 0.333336H21.9166C22.885 0.333336 23.6666 1.115 23.6666 2.08334V6.16667H21.3333V2.66667H17.8333V0.333336ZM6.16665 23.6667H2.08331C1.11498 23.6667 0.333313 22.885 0.333313 21.9167V17.8333H2.66665V21.3333H6.16665V23.6667ZM17.8333 23.6667H21.9166C22.885 23.6667 23.6666 22.885 23.6666 21.9167V17.8333H21.3333V21.3333H17.8333V23.6667Z" fill="white"/>
</svg>
