<svg width="22" height="22" viewBox="0 0 22 22" fill="none" xmlns="http://www.w3.org/2000/svg">
<path d="M19.1667 0.5H2.83333C1.53833 0.5 0.5 1.55 0.5 2.83333V19.1667C0.5 20.45 1.53833 21.5 2.83333 21.5H19.1667C20.45 21.5 21.5 20.45 21.5 19.1667V2.83333C21.5 1.55 20.4617 0.5 19.1667 0.5ZM19.1667 19.1667H2.83333V5.16667H19.1667V19.1667ZM15.6667 11H6.33333C5.69167 11 5.16667 10.475 5.16667 9.83333C5.16667 9.19167 5.69167 8.66667 6.33333 8.66667H15.6667C16.3083 8.66667 16.8333 9.19167 16.8333 9.83333C16.8333 10.475 16.3083 11 15.6667 11ZM11 15.6667H6.33333C5.69167 15.6667 5.16667 15.1417 5.16667 14.5C5.16667 13.8583 5.69167 13.3333 6.33333 13.3333H11C11.6417 13.3333 12.1667 13.8583 12.1667 14.5C12.1667 15.1417 11.6417 15.6667 11 15.6667Z" fill="#F7F7F7"/>
</svg>
